<mxfile host="app.diagrams.net" modified="2020-08-25T07:31:21.183Z" agent="5.0 (Macintosh; Intel Mac OS X 10_14_6) AppleWebKit/537.36 (KHTML, like Gecko) Chrome/84.0.4147.135 Safari/537.36" etag="c3WJ3VVSuiGG9C2kWH4g" version="13.6.2" type="github">
  <diagram name="Page-1" id="822b0af5-4adb-64df-f703-e8dfc1f81529">
    <mxGraphModel dx="1113" dy="642" grid="1" gridSize="10" guides="1" tooltips="1" connect="1" arrows="1" fold="1" page="1" pageScale="1" pageWidth="1100" pageHeight="850" background="#ffffff" math="0" shadow="0">
      <root>
        <mxCell id="0" />
        <mxCell id="1" parent="0" />
        <mxCell id="yKmip7AhmHxL8dwArh6h-2" value="" style="verticalLabelPosition=bottom;aspect=fixed;html=1;verticalAlign=top;strokeColor=none;align=center;outlineConnect=0;shape=mxgraph.citrix.cloud;" vertex="1" parent="1">
          <mxGeometry x="70" y="280" width="95" height="62" as="geometry" />
        </mxCell>
        <mxCell id="yKmip7AhmHxL8dwArh6h-23" style="edgeStyle=orthogonalEdgeStyle;rounded=0;orthogonalLoop=1;jettySize=auto;html=1;" edge="1" parent="1" source="yKmip7AhmHxL8dwArh6h-3">
          <mxGeometry relative="1" as="geometry">
            <mxPoint x="480" y="260" as="targetPoint" />
          </mxGeometry>
        </mxCell>
        <mxCell id="yKmip7AhmHxL8dwArh6h-24" style="edgeStyle=orthogonalEdgeStyle;rounded=0;orthogonalLoop=1;jettySize=auto;html=1;" edge="1" parent="1" source="yKmip7AhmHxL8dwArh6h-3">
          <mxGeometry relative="1" as="geometry">
            <mxPoint x="710" y="260" as="targetPoint" />
          </mxGeometry>
        </mxCell>
        <mxCell id="yKmip7AhmHxL8dwArh6h-25" style="edgeStyle=orthogonalEdgeStyle;rounded=0;orthogonalLoop=1;jettySize=auto;html=1;" edge="1" parent="1" source="yKmip7AhmHxL8dwArh6h-3" target="yKmip7AhmHxL8dwArh6h-7">
          <mxGeometry relative="1" as="geometry" />
        </mxCell>
        <mxCell id="yKmip7AhmHxL8dwArh6h-27" style="edgeStyle=orthogonalEdgeStyle;rounded=0;orthogonalLoop=1;jettySize=auto;html=1;" edge="1" parent="1" source="yKmip7AhmHxL8dwArh6h-3" target="yKmip7AhmHxL8dwArh6h-4">
          <mxGeometry relative="1" as="geometry">
            <Array as="points">
              <mxPoint x="210" y="483" />
              <mxPoint x="203" y="483" />
            </Array>
          </mxGeometry>
        </mxCell>
        <mxCell id="yKmip7AhmHxL8dwArh6h-28" style="edgeStyle=orthogonalEdgeStyle;rounded=0;orthogonalLoop=1;jettySize=auto;html=1;" edge="1" parent="1" source="yKmip7AhmHxL8dwArh6h-3" target="yKmip7AhmHxL8dwArh6h-2">
          <mxGeometry relative="1" as="geometry" />
        </mxCell>
        <mxCell id="yKmip7AhmHxL8dwArh6h-31" style="edgeStyle=orthogonalEdgeStyle;rounded=0;orthogonalLoop=1;jettySize=auto;html=1;" edge="1" parent="1" source="yKmip7AhmHxL8dwArh6h-3" target="yKmip7AhmHxL8dwArh6h-30">
          <mxGeometry relative="1" as="geometry" />
        </mxCell>
        <mxCell id="yKmip7AhmHxL8dwArh6h-58" style="edgeStyle=orthogonalEdgeStyle;rounded=0;orthogonalLoop=1;jettySize=auto;html=1;" edge="1" parent="1" source="yKmip7AhmHxL8dwArh6h-3" target="yKmip7AhmHxL8dwArh6h-29">
          <mxGeometry relative="1" as="geometry">
            <Array as="points">
              <mxPoint x="227" y="440" />
              <mxPoint x="497" y="440" />
            </Array>
          </mxGeometry>
        </mxCell>
        <mxCell id="yKmip7AhmHxL8dwArh6h-3" value="" style="verticalLabelPosition=bottom;aspect=fixed;html=1;verticalAlign=top;strokeColor=none;align=center;outlineConnect=0;shape=mxgraph.citrix.router;" vertex="1" parent="1">
          <mxGeometry x="200" y="370" width="55" height="36.5" as="geometry" />
        </mxCell>
        <mxCell id="yKmip7AhmHxL8dwArh6h-86" style="edgeStyle=orthogonalEdgeStyle;rounded=0;orthogonalLoop=1;jettySize=auto;html=1;fontSize=16;" edge="1" parent="1" source="yKmip7AhmHxL8dwArh6h-4" target="yKmip7AhmHxL8dwArh6h-85">
          <mxGeometry relative="1" as="geometry" />
        </mxCell>
        <mxCell id="yKmip7AhmHxL8dwArh6h-4" value="" style="verticalLabelPosition=bottom;aspect=fixed;html=1;verticalAlign=top;strokeColor=none;align=center;outlineConnect=0;shape=mxgraph.citrix.license_server;" vertex="1" parent="1">
          <mxGeometry x="180" y="560" width="45.88" height="60" as="geometry" />
        </mxCell>
        <mxCell id="yKmip7AhmHxL8dwArh6h-20" style="edgeStyle=orthogonalEdgeStyle;rounded=0;orthogonalLoop=1;jettySize=auto;html=1;" edge="1" parent="1" source="yKmip7AhmHxL8dwArh6h-5" target="yKmip7AhmHxL8dwArh6h-8">
          <mxGeometry relative="1" as="geometry" />
        </mxCell>
        <mxCell id="yKmip7AhmHxL8dwArh6h-21" style="edgeStyle=orthogonalEdgeStyle;rounded=0;orthogonalLoop=1;jettySize=auto;html=1;" edge="1" parent="1" source="yKmip7AhmHxL8dwArh6h-5" target="yKmip7AhmHxL8dwArh6h-9">
          <mxGeometry relative="1" as="geometry" />
        </mxCell>
        <mxCell id="yKmip7AhmHxL8dwArh6h-22" style="edgeStyle=orthogonalEdgeStyle;rounded=0;orthogonalLoop=1;jettySize=auto;html=1;" edge="1" parent="1" source="yKmip7AhmHxL8dwArh6h-5" target="yKmip7AhmHxL8dwArh6h-10">
          <mxGeometry relative="1" as="geometry" />
        </mxCell>
        <mxCell id="yKmip7AhmHxL8dwArh6h-5" value="" style="verticalLabelPosition=bottom;aspect=fixed;html=1;verticalAlign=top;strokeColor=none;align=center;outlineConnect=0;shape=mxgraph.citrix.router;" vertex="1" parent="1">
          <mxGeometry x="450" y="220" width="55" height="36.5" as="geometry" />
        </mxCell>
        <mxCell id="yKmip7AhmHxL8dwArh6h-59" style="edgeStyle=orthogonalEdgeStyle;rounded=0;orthogonalLoop=1;jettySize=auto;html=1;" edge="1" parent="1" source="yKmip7AhmHxL8dwArh6h-6" target="yKmip7AhmHxL8dwArh6h-13">
          <mxGeometry relative="1" as="geometry" />
        </mxCell>
        <mxCell id="yKmip7AhmHxL8dwArh6h-60" style="edgeStyle=orthogonalEdgeStyle;rounded=0;orthogonalLoop=1;jettySize=auto;html=1;" edge="1" parent="1" source="yKmip7AhmHxL8dwArh6h-6" target="yKmip7AhmHxL8dwArh6h-12">
          <mxGeometry relative="1" as="geometry" />
        </mxCell>
        <mxCell id="yKmip7AhmHxL8dwArh6h-61" style="edgeStyle=orthogonalEdgeStyle;rounded=0;orthogonalLoop=1;jettySize=auto;html=1;" edge="1" parent="1" source="yKmip7AhmHxL8dwArh6h-6" target="yKmip7AhmHxL8dwArh6h-11">
          <mxGeometry relative="1" as="geometry" />
        </mxCell>
        <mxCell id="yKmip7AhmHxL8dwArh6h-6" value="" style="verticalLabelPosition=bottom;aspect=fixed;html=1;verticalAlign=top;strokeColor=none;align=center;outlineConnect=0;shape=mxgraph.citrix.router;" vertex="1" parent="1">
          <mxGeometry x="680" y="220" width="55" height="36.5" as="geometry" />
        </mxCell>
        <mxCell id="yKmip7AhmHxL8dwArh6h-64" style="edgeStyle=orthogonalEdgeStyle;rounded=0;orthogonalLoop=1;jettySize=auto;html=1;" edge="1" parent="1" source="yKmip7AhmHxL8dwArh6h-7" target="yKmip7AhmHxL8dwArh6h-15">
          <mxGeometry relative="1" as="geometry" />
        </mxCell>
        <mxCell id="yKmip7AhmHxL8dwArh6h-65" style="edgeStyle=orthogonalEdgeStyle;rounded=0;orthogonalLoop=1;jettySize=auto;html=1;" edge="1" parent="1" source="yKmip7AhmHxL8dwArh6h-7" target="yKmip7AhmHxL8dwArh6h-16">
          <mxGeometry relative="1" as="geometry" />
        </mxCell>
        <mxCell id="yKmip7AhmHxL8dwArh6h-7" value="" style="verticalLabelPosition=bottom;aspect=fixed;html=1;verticalAlign=top;strokeColor=none;align=center;outlineConnect=0;shape=mxgraph.citrix.router;" vertex="1" parent="1">
          <mxGeometry x="920" y="220" width="55" height="36.5" as="geometry" />
        </mxCell>
        <mxCell id="yKmip7AhmHxL8dwArh6h-8" value="" style="verticalLabelPosition=bottom;aspect=fixed;html=1;verticalAlign=top;strokeColor=none;align=center;outlineConnect=0;shape=mxgraph.citrix.laptop_2;" vertex="1" parent="1">
          <mxGeometry x="370" y="60" width="40.23" height="30" as="geometry" />
        </mxCell>
        <mxCell id="yKmip7AhmHxL8dwArh6h-9" value="" style="verticalLabelPosition=bottom;aspect=fixed;html=1;verticalAlign=top;strokeColor=none;align=center;outlineConnect=0;shape=mxgraph.citrix.laptop_2;" vertex="1" parent="1">
          <mxGeometry x="457.39" y="60" width="40.23" height="30" as="geometry" />
        </mxCell>
        <mxCell id="yKmip7AhmHxL8dwArh6h-10" value="" style="verticalLabelPosition=bottom;aspect=fixed;html=1;verticalAlign=top;strokeColor=none;align=center;outlineConnect=0;shape=mxgraph.citrix.laptop_2;" vertex="1" parent="1">
          <mxGeometry x="540" y="60" width="40.23" height="30" as="geometry" />
        </mxCell>
        <mxCell id="yKmip7AhmHxL8dwArh6h-11" value="" style="verticalLabelPosition=bottom;aspect=fixed;html=1;verticalAlign=top;strokeColor=none;align=center;outlineConnect=0;shape=mxgraph.citrix.laptop_2;" vertex="1" parent="1">
          <mxGeometry x="600" y="140" width="40.23" height="30" as="geometry" />
        </mxCell>
        <mxCell id="yKmip7AhmHxL8dwArh6h-12" value="" style="verticalLabelPosition=bottom;aspect=fixed;html=1;verticalAlign=top;strokeColor=none;align=center;outlineConnect=0;shape=mxgraph.citrix.laptop_2;" vertex="1" parent="1">
          <mxGeometry x="670" y="100" width="40.23" height="30" as="geometry" />
        </mxCell>
        <mxCell id="yKmip7AhmHxL8dwArh6h-13" value="" style="verticalLabelPosition=bottom;aspect=fixed;html=1;verticalAlign=top;strokeColor=none;align=center;outlineConnect=0;shape=mxgraph.citrix.laptop_2;" vertex="1" parent="1">
          <mxGeometry x="750" y="120" width="40.23" height="30" as="geometry" />
        </mxCell>
        <mxCell id="yKmip7AhmHxL8dwArh6h-15" value="" style="verticalLabelPosition=bottom;aspect=fixed;html=1;verticalAlign=top;strokeColor=none;align=center;outlineConnect=0;shape=mxgraph.citrix.laptop_2;" vertex="1" parent="1">
          <mxGeometry x="934.77" y="70" width="40.23" height="30" as="geometry" />
        </mxCell>
        <mxCell id="yKmip7AhmHxL8dwArh6h-16" value="" style="verticalLabelPosition=bottom;aspect=fixed;html=1;verticalAlign=top;strokeColor=none;align=center;outlineConnect=0;shape=mxgraph.citrix.laptop_2;" vertex="1" parent="1">
          <mxGeometry x="990" y="120" width="40.23" height="30" as="geometry" />
        </mxCell>
        <mxCell id="yKmip7AhmHxL8dwArh6h-29" value="" style="verticalLabelPosition=bottom;aspect=fixed;html=1;verticalAlign=top;strokeColor=none;align=center;outlineConnect=0;shape=mxgraph.citrix.router;" vertex="1" parent="1">
          <mxGeometry x="470" y="524" width="55" height="36.5" as="geometry" />
        </mxCell>
        <mxCell id="yKmip7AhmHxL8dwArh6h-30" value="" style="verticalLabelPosition=bottom;aspect=fixed;html=1;verticalAlign=top;strokeColor=none;align=center;outlineConnect=0;shape=mxgraph.citrix.router;" vertex="1" parent="1">
          <mxGeometry x="742.61" y="523.5" width="55" height="36.5" as="geometry" />
        </mxCell>
        <mxCell id="yKmip7AhmHxL8dwArh6h-14" value="" style="verticalLabelPosition=bottom;aspect=fixed;html=1;verticalAlign=top;strokeColor=none;align=center;outlineConnect=0;shape=mxgraph.citrix.laptop_2;" vertex="1" parent="1">
          <mxGeometry x="850" y="70" width="40.23" height="30" as="geometry" />
        </mxCell>
        <mxCell id="yKmip7AhmHxL8dwArh6h-63" style="edgeStyle=orthogonalEdgeStyle;rounded=0;orthogonalLoop=1;jettySize=auto;html=1;" edge="1" parent="1" source="yKmip7AhmHxL8dwArh6h-7" target="yKmip7AhmHxL8dwArh6h-14">
          <mxGeometry relative="1" as="geometry">
            <mxPoint x="890" y="139.9999999999999" as="targetPoint" />
            <mxPoint x="920" y="238.2352941176472" as="sourcePoint" />
          </mxGeometry>
        </mxCell>
        <mxCell id="yKmip7AhmHxL8dwArh6h-66" value="" style="verticalLabelPosition=bottom;aspect=fixed;html=1;verticalAlign=top;strokeColor=none;align=center;outlineConnect=0;shape=mxgraph.citrix.laptop_1;" vertex="1" parent="1">
          <mxGeometry x="410.23" y="700" width="47.27" height="40" as="geometry" />
        </mxCell>
        <mxCell id="yKmip7AhmHxL8dwArh6h-67" value="" style="verticalLabelPosition=bottom;aspect=fixed;html=1;verticalAlign=top;strokeColor=none;align=center;outlineConnect=0;shape=mxgraph.citrix.laptop_1;" vertex="1" parent="1">
          <mxGeometry x="532.96" y="670" width="47.27" height="40" as="geometry" />
        </mxCell>
        <mxCell id="yKmip7AhmHxL8dwArh6h-68" value="" style="verticalLabelPosition=bottom;aspect=fixed;html=1;verticalAlign=top;strokeColor=none;align=center;outlineConnect=0;shape=mxgraph.citrix.laptop_1;" vertex="1" parent="1">
          <mxGeometry x="580.23" y="560" width="47.27" height="40" as="geometry" />
        </mxCell>
        <mxCell id="yKmip7AhmHxL8dwArh6h-69" value="" style="verticalLabelPosition=bottom;aspect=fixed;html=1;verticalAlign=top;strokeColor=none;align=center;outlineConnect=0;shape=mxgraph.citrix.laptop_1;" vertex="1" parent="1">
          <mxGeometry x="720" y="670" width="47.27" height="40" as="geometry" />
        </mxCell>
        <mxCell id="yKmip7AhmHxL8dwArh6h-70" value="" style="verticalLabelPosition=bottom;aspect=fixed;html=1;verticalAlign=top;strokeColor=none;align=center;outlineConnect=0;shape=mxgraph.citrix.laptop_1;" vertex="1" parent="1">
          <mxGeometry x="830" y="630" width="47.27" height="40" as="geometry" />
        </mxCell>
        <mxCell id="yKmip7AhmHxL8dwArh6h-72" value="" style="endArrow=block;html=1;startArrow=block;startFill=1;endFill=1;strokeColor=#FCC548;dashed=1;dashPattern=5 5;" edge="1" parent="1">
          <mxGeometry width="100" height="100" relative="1" as="geometry">
            <mxPoint x="500" y="580" as="sourcePoint" />
            <mxPoint x="530" y="670" as="targetPoint" />
          </mxGeometry>
        </mxCell>
        <mxCell id="yKmip7AhmHxL8dwArh6h-73" value="" style="endArrow=block;html=1;startArrow=block;startFill=1;endFill=1;strokeColor=#FCC548;dashed=1;dashPattern=5 5;" edge="1" parent="1">
          <mxGeometry width="100" height="100" relative="1" as="geometry">
            <mxPoint x="530" y="560" as="sourcePoint" />
            <mxPoint x="580" y="570" as="targetPoint" />
          </mxGeometry>
        </mxCell>
        <mxCell id="yKmip7AhmHxL8dwArh6h-74" value="" style="endArrow=block;html=1;startArrow=block;startFill=1;endFill=1;strokeColor=#FCC548;dashed=1;dashPattern=5 5;" edge="1" parent="1">
          <mxGeometry width="100" height="100" relative="1" as="geometry">
            <mxPoint x="440" y="680" as="sourcePoint" />
            <mxPoint x="470" y="570" as="targetPoint" />
          </mxGeometry>
        </mxCell>
        <mxCell id="yKmip7AhmHxL8dwArh6h-75" value="" style="endArrow=block;html=1;startArrow=block;startFill=1;endFill=1;strokeColor=#FCC548;dashed=1;dashPattern=5 5;" edge="1" parent="1">
          <mxGeometry width="100" height="100" relative="1" as="geometry">
            <mxPoint x="740" y="660" as="sourcePoint" />
            <mxPoint x="750" y="570" as="targetPoint" />
          </mxGeometry>
        </mxCell>
        <mxCell id="yKmip7AhmHxL8dwArh6h-76" value="" style="endArrow=block;html=1;startArrow=block;startFill=1;endFill=1;strokeColor=#FCC548;dashed=1;dashPattern=5 5;" edge="1" parent="1" source="yKmip7AhmHxL8dwArh6h-70">
          <mxGeometry width="100" height="100" relative="1" as="geometry">
            <mxPoint x="600" y="550" as="sourcePoint" />
            <mxPoint x="800" y="560" as="targetPoint" />
          </mxGeometry>
        </mxCell>
        <mxCell id="yKmip7AhmHxL8dwArh6h-77" value="Internet" style="text;html=1;align=center;verticalAlign=middle;resizable=0;points=[];autosize=1;fontSize=16;" vertex="1" parent="1">
          <mxGeometry x="82.5" y="256.5" width="70" height="20" as="geometry" />
        </mxCell>
        <mxCell id="yKmip7AhmHxL8dwArh6h-78" value="Router ISP&lt;br&gt;(admin)" style="text;html=1;align=center;verticalAlign=middle;resizable=0;points=[];autosize=1;fontSize=16;" vertex="1" parent="1">
          <mxGeometry x="182.5" y="320" width="90" height="40" as="geometry" />
        </mxCell>
        <mxCell id="yKmip7AhmHxL8dwArh6h-79" value="Server Aplikasi" style="text;html=1;align=center;verticalAlign=middle;resizable=0;points=[];autosize=1;fontSize=16;" vertex="1" parent="1">
          <mxGeometry x="142.94" y="630" width="120" height="20" as="geometry" />
        </mxCell>
        <mxCell id="yKmip7AhmHxL8dwArh6h-80" value="Agen A" style="text;html=1;align=center;verticalAlign=middle;resizable=0;points=[];autosize=1;fontSize=16;" vertex="1" parent="1">
          <mxGeometry x="490" y="260" width="70" height="20" as="geometry" />
        </mxCell>
        <mxCell id="yKmip7AhmHxL8dwArh6h-81" value="Agen B" style="text;html=1;align=center;verticalAlign=middle;resizable=0;points=[];autosize=1;fontSize=16;" vertex="1" parent="1">
          <mxGeometry x="735" y="260" width="70" height="20" as="geometry" />
        </mxCell>
        <mxCell id="yKmip7AhmHxL8dwArh6h-82" value="Agen C" style="text;html=1;align=center;verticalAlign=middle;resizable=0;points=[];autosize=1;fontSize=16;" vertex="1" parent="1">
          <mxGeometry x="970" y="270" width="70" height="20" as="geometry" />
        </mxCell>
        <mxCell id="yKmip7AhmHxL8dwArh6h-83" value="Agen D" style="text;html=1;align=center;verticalAlign=middle;resizable=0;points=[];autosize=1;fontSize=16;" vertex="1" parent="1">
          <mxGeometry x="818.64" y="531.75" width="70" height="20" as="geometry" />
        </mxCell>
        <mxCell id="yKmip7AhmHxL8dwArh6h-84" value="Agen E" style="text;html=1;align=center;verticalAlign=middle;resizable=0;points=[];autosize=1;fontSize=16;" vertex="1" parent="1">
          <mxGeometry x="532.96" y="524" width="70" height="20" as="geometry" />
        </mxCell>
        <mxCell id="yKmip7AhmHxL8dwArh6h-85" value="" style="verticalLabelPosition=bottom;aspect=fixed;html=1;verticalAlign=top;strokeColor=none;align=center;outlineConnect=0;shape=mxgraph.citrix.reporting;fontSize=16;" vertex="1" parent="1">
          <mxGeometry x="70" y="511.75" width="43.01" height="48.25" as="geometry" />
        </mxCell>
        <mxCell id="yKmip7AhmHxL8dwArh6h-87" value="WinBox" style="text;html=1;align=center;verticalAlign=middle;resizable=0;points=[];autosize=1;fontSize=16;" vertex="1" parent="1">
          <mxGeometry x="50" y="570" width="70" height="20" as="geometry" />
        </mxCell>
      </root>
    </mxGraphModel>
  </diagram>
</mxfile>
